<svg width="32" height="32" xmlns="http://www.w3.org/2000/svg">
 <g>
  <line x1="0" x2="8" y1="16" y2="16" stroke-width="2" stroke="#000" fill="none"/>
   <path d="
    M16,16
    m-7.728,-2.071
    a8,8 0 0,0 0,4.142

    m2.071,-7.728
    a8,8 0 0,1 3.586,-2.07

    m7.728,2.071
    a8,8 0 0,0 -3.586,-2.07

    m5.657,5.657
    a8,8 0 0,1 0,4.142

    m-2.071,3.586
    a8,8 0 0,1 -3.586,2.07

    m-3.586,0
    a8,8 0 0,1 -3.586,-2.07
    " stroke-width="2" stroke="#000" fill="none"/>
  <line x1="24" x2="32" y1="16" y2="16" stroke-width="2" stroke="#000" fill="none"/>
 </g>
</svg>